# xmcd
#
# Track frame offsets:
#	150
#	14961
#	29496
#	44776
#	61838
#	77216
#	94782
#	108759
#	120626
#	136295
#	148495
#	161747
#	176374
#	190318
#
# Disc length: 2735 seconds
#
# Revision: 1
# Processed by: cddbd v1.5.2PL0 Copyright (c) Steve Scherf et al.
# Submitted via: EZCDAudioConverter 2.4.0.1
#
DISCID=cd0aad0e
DTITLE=Edson E Hudson - Galera Coração
DYEAR=2005
DGENRE=Sertanejo
TTITLE0=Galera Coração
TTITLE1=É amor Demais
TTITLE2=Tá No Meu Coração
TTITLE3=Por Trás De Chuva
TTITLE4=Solte A Garganta
TTITLE5=Não Tem Dia, Não Tem Hora
TTITLE6=Chocolate Com Pimenta
TTITLE7=Chega Junto
TTITLE8=Amor é Ilusão
TTITLE9=Quantas Lembranças
TTITLE10=Abre A Janela
TTITLE11=Pora Mar Essa Mulher
TTITLE12=Nossa História
TTITLE13=O Caldeirão Vai Ferver
EXTD=
EXTT0=
EXTT1=
EXTT2=
EXTT3=
EXTT4=
EXTT5=
EXTT6=
EXTT7=
EXTT8=
EXTT9=
EXTT10=
EXTT11=
EXTT12=
EXTT13=
PLAYORDER=
